<svg xmlns="http://www.w3.org/2000/svg" xmlns:xlink="http://www.w3.org/1999/xlink" width="477" zoomAndPan="magnify" viewBox="0 0 357.75 119.249998" height="159" preserveAspectRatio="xMidYMid meet" version="1.0"><defs><g/><clipPath id="a7107baf0a"><path d="M 102.652344 1 L 220.410156 1 L 220.410156 117.757812 L 102.652344 117.757812 Z M 102.652344 1 " clip-rule="nonzero"/></clipPath><clipPath id="53fa3dacae"><path d="M 102.652344 0 L 219 0 L 219 117.757812 L 102.652344 117.757812 Z M 102.652344 0 " clip-rule="nonzero"/></clipPath><clipPath id="194781f71e"><path d="M 124 18.085938 L 183 18.085938 L 183 100.070312 L 124 100.070312 Z M 124 18.085938 " clip-rule="nonzero"/></clipPath></defs><g clip-path="url(#a7107baf0a)"><path fill="#f8fb54" d="M 204.957031 71.261719 C 201.582031 67.152344 194.097656 69.792969 190.574219 65.832031 C 188.078125 63.1875 188.957031 58.636719 191.160156 55.703125 C 193.363281 52.765625 196.589844 50.859375 199.234375 48.363281 C 201.140625 46.601562 202.753906 44.253906 203.050781 41.757812 C 203.488281 39.117188 202.316406 36.179688 199.96875 35.152344 C 198.351562 34.417969 196.296875 34.566406 194.535156 35.007812 C 189.546875 36.035156 183.96875 37.355469 180.003906 34.273438 C 174.132812 29.574219 175.75 19.886719 170.90625 14.457031 C 170.757812 14.3125 170.609375 14.164062 170.464844 14.015625 C 164.152344 7.851562 159.894531 15.777344 157.105469 21.648438 C 156.519531 22.972656 155.933594 24.292969 155.492188 25.171875 C 151.234375 33.6875 141.84375 30.75 136.117188 25.320312 C 133.917969 23.265625 131.566406 21.0625 128.632812 20.183594 C 125.695312 19.300781 122.027344 20.328125 120.851562 23.117188 C 118.503906 28.546875 124.816406 34.125 126.429688 38.675781 C 127.605469 41.90625 127.898438 45.867188 126.136719 48.949219 C 123.640625 53.5 118.0625 55.261719 113.511719 57.757812 C 109.109375 60.253906 105.148438 64.214844 103.972656 69.207031 C 102.796875 74.195312 105 80.070312 109.699219 82.125 C 115.421875 84.472656 122.171875 80.800781 127.898438 83.152344 C 132.15625 84.910156 134.503906 89.460938 135.824219 93.867188 C 137 98.269531 137.585938 102.964844 139.933594 107.074219 C 142.136719 111.039062 146.980469 114.269531 151.382812 112.652344 C 152.558594 112.214844 153.4375 111.625 154.320312 110.746094 C 155.640625 109.425781 156.667969 107.515625 157.253906 105.753906 C 158.28125 102.820312 158.867188 99.738281 160.191406 96.800781 C 165.035156 86.96875 175.75 86.96875 184.847656 88.140625 C 191.011719 88.875 197.472656 86.96875 202.023438 82.855469 C 205.398438 79.773438 207.746094 74.636719 204.957031 71.261719 Z M 202.316406 14.605469 C 201.140625 13.285156 199.527344 12.550781 197.765625 12.550781 C 196.589844 12.550781 195.417969 12.695312 194.242188 13.136719 C 193.800781 13.285156 193.214844 13.429688 192.773438 13.722656 C 188.078125 15.925781 182.207031 22.089844 182.941406 27.667969 C 183.085938 28.253906 183.234375 28.988281 183.820312 29.28125 C 184.410156 29.574219 185.289062 29.28125 185.875 28.988281 C 186.023438 28.988281 186.167969 28.84375 186.316406 28.84375 C 191.746094 26.492188 199.96875 27.667969 202.902344 21.355469 C 203.929688 19.15625 203.78125 16.367188 202.316406 14.605469 Z M 118.796875 41.171875 C 118.355469 40.585938 117.917969 40.144531 117.328125 39.558594 C 114.980469 37.648438 111.898438 36.476562 108.964844 36.621094 C 107.496094 36.621094 105.882812 37.0625 104.707031 37.941406 C 103.53125 38.824219 102.796875 40.4375 102.945312 41.90625 C 103.238281 43.519531 104.558594 44.546875 106.175781 44.988281 C 106.761719 45.136719 107.496094 45.28125 108.082031 45.28125 C 110.285156 45.28125 112.484375 44.546875 114.6875 44.402344 C 115.863281 44.402344 118.796875 45.28125 119.679688 44.546875 C 120.558594 43.8125 119.386719 41.90625 118.796875 41.171875 Z M 186.609375 107.808594 C 186.464844 106.78125 186.316406 105.902344 185.875 104.875 C 185.730469 104.582031 185.582031 104.433594 185.582031 104.140625 C 183.820312 100.910156 180.886719 98.5625 177.65625 96.949219 C 176.777344 96.507812 172.8125 94.746094 170.609375 95.039062 C 169.730469 95.1875 169.144531 95.480469 169.144531 96.359375 C 169.144531 96.65625 169.289062 96.949219 169.4375 97.242188 C 170.757812 100.175781 171.785156 102.527344 171.933594 105.753906 C 172.078125 108.542969 171.636719 111.625 173.253906 114.121094 C 174.722656 116.324219 177.507812 117.644531 180.296875 117.058594 C 184.703125 116.324219 187.050781 112.066406 186.609375 107.808594 Z M 123.789062 88.433594 C 123.496094 88.433594 123.347656 88.433594 123.054688 88.582031 C 122.46875 88.726562 122.027344 88.875 121.441406 89.023438 C 119.972656 89.460938 118.503906 90.195312 117.183594 91.078125 C 114.542969 92.839844 112.339844 95.1875 110.871094 97.828125 C 109.699219 100.03125 108.964844 102.527344 109.550781 104.875 C 109.992188 107.222656 111.898438 109.425781 114.394531 109.71875 C 114.6875 109.71875 114.980469 109.71875 115.273438 109.71875 C 117.769531 109.570312 119.972656 107.515625 120.851562 105.167969 C 122.027344 102.527344 122.027344 99.589844 122.171875 96.800781 C 122.46875 94.011719 123.054688 90.929688 124.960938 88.875 C 125.695312 88.433594 123.789062 88.433594 123.789062 88.433594 Z M 148.445312 21.648438 C 148.300781 21.210938 148.152344 20.621094 147.859375 20.183594 C 147.125 18.128906 146.832031 15.777344 146.980469 13.578125 C 147.125 11.375 147.859375 9.171875 147.714844 6.972656 C 147.714844 4.769531 146.6875 2.273438 144.632812 1.394531 C 142.136719 0.367188 139.199219 2.128906 138.171875 4.625 C 137.144531 7.117188 137.585938 9.90625 138.613281 12.402344 C 139.933594 15.925781 142.871094 20.769531 146.539062 22.53125 C 148.445312 23.117188 148.742188 22.675781 148.445312 21.648438 Z M 220.371094 60.839844 C 220.222656 59.664062 219.488281 58.492188 218.753906 57.464844 C 218.753906 57.464844 218.609375 57.316406 218.609375 57.316406 C 217.285156 55.554688 215.378906 54.089844 213.175781 53.355469 C 210.242188 52.472656 207.160156 52.914062 204.371094 53.941406 C 202.902344 54.527344 193.949219 58.636719 196.738281 60.695312 C 197.179688 60.988281 197.765625 61.132812 198.207031 61.132812 C 198.5 61.132812 198.941406 61.132812 199.378906 61.132812 C 202.753906 61.28125 206.132812 62.015625 209.214844 63.480469 C 210.828125 64.214844 212.441406 65.242188 214.203125 65.683594 C 215.964844 66.125 218.019531 65.832031 219.34375 64.507812 C 220.222656 63.628906 220.515625 62.160156 220.371094 60.839844 Z M 220.371094 60.839844 " fill-opacity="1" fill-rule="nonzero"/></g><g clip-path="url(#53fa3dacae)"><path fill="#ffde59" d="M 170.90625 14.457031 C 169.582031 14.164062 167.96875 14.3125 166.792969 15.046875 C 164.300781 16.511719 162.976562 19.300781 162.246094 22.089844 C 161.511719 24.878906 161.070312 27.816406 159.894531 30.457031 C 157.253906 35.59375 150.648438 38.53125 145.070312 37.0625 C 142.429688 36.328125 139.199219 34.859375 137 36.621094 C 134.945312 38.382812 135.824219 41.613281 136.265625 44.253906 C 136.851562 48.511719 135.824219 53.0625 133.476562 56.4375 C 131.273438 59.519531 127.898438 62.601562 128.632812 66.269531 C 129.367188 69.648438 133.035156 71.261719 135.675781 73.464844 C 139.640625 76.839844 141.253906 82.269531 141.695312 87.40625 C 142.28125 92.542969 141.84375 97.828125 142.871094 102.820312 C 143.308594 105.316406 144.191406 107.808594 145.953125 109.71875 C 147.714844 111.625 150.503906 112.507812 152.851562 111.480469 C 153.289062 111.332031 153.730469 111.039062 154.171875 110.597656 C 153.4375 111.480469 152.410156 112.066406 151.234375 112.507812 C 146.832031 114.121094 142.136719 111.039062 139.789062 106.929688 C 137.585938 102.964844 137 98.269531 135.675781 93.71875 C 134.355469 89.316406 132.007812 84.765625 127.75 83.003906 C 122.027344 80.65625 115.128906 84.472656 109.550781 81.976562 C 104.855469 79.921875 102.652344 74.050781 103.824219 69.058594 C 105 64.070312 108.964844 60.105469 113.367188 57.609375 C 117.917969 55.117188 123.496094 53.355469 125.988281 48.804688 C 127.605469 45.722656 127.457031 41.90625 126.285156 38.53125 C 124.667969 33.980469 118.355469 28.402344 120.707031 22.972656 C 121.878906 20.183594 125.550781 19.15625 128.484375 20.035156 C 131.421875 20.917969 133.769531 22.972656 135.972656 25.171875 C 141.695312 30.605469 151.089844 33.6875 155.347656 25.027344 C 155.785156 24.144531 156.375 22.824219 156.960938 21.503906 C 159.75 15.632812 164.007812 7.851562 170.316406 13.871094 C 170.609375 14.164062 170.757812 14.3125 170.90625 14.457031 Z M 148.445312 21.648438 C 148.152344 21.210938 147.859375 20.917969 147.714844 20.476562 C 144.925781 17.101562 142.574219 13.136719 142.28125 8.878906 C 142.136719 6.089844 143.015625 3.300781 144.777344 1.246094 C 142.28125 0.21875 139.347656 1.980469 138.320312 4.476562 C 137.292969 6.972656 137.730469 9.761719 138.757812 12.257812 C 140.082031 15.777344 143.015625 20.621094 146.6875 22.382812 C 148.445312 23.117188 148.742188 22.675781 148.445312 21.648438 Z M 108.964844 36.769531 C 107.496094 36.769531 105.882812 37.207031 104.707031 38.089844 C 103.53125 38.96875 102.796875 40.585938 102.945312 42.050781 C 103.238281 43.667969 104.558594 44.695312 106.175781 45.136719 C 106.761719 44.105469 107.054688 42.933594 107.789062 42.050781 C 108.964844 40.144531 111.457031 39.117188 113.660156 38.96875 C 114.835938 38.96875 116.15625 39.410156 117.328125 39.703125 C 114.980469 37.796875 111.898438 36.621094 108.964844 36.769531 Z M 121.585938 89.023438 C 120.117188 89.460938 118.652344 90.195312 117.328125 91.078125 C 114.6875 92.839844 112.484375 95.1875 111.019531 97.828125 C 109.84375 100.03125 109.109375 102.527344 109.699219 104.875 C 110.136719 107.222656 112.046875 109.425781 114.542969 109.71875 C 114.835938 109.71875 115.128906 109.71875 115.421875 109.71875 C 113.953125 105.753906 114.101562 101.058594 115.863281 97.242188 C 117.183594 94.160156 119.386719 92.398438 121.734375 90.195312 C 122.46875 89.609375 122.90625 88.875 123.199219 88.433594 C 122.613281 88.726562 122.027344 88.875 121.585938 89.023438 Z M 186.609375 107.808594 C 186.167969 108.984375 185.4375 110.160156 184.554688 111.1875 C 182.351562 113.535156 178.097656 114.269531 175.894531 111.917969 C 173.105469 108.984375 175.160156 103.992188 173.105469 100.472656 C 172.371094 99.003906 170.90625 97.976562 170.464844 96.359375 C 170.316406 96.066406 170.464844 95.628906 170.464844 95.039062 C 169.582031 95.1875 168.996094 95.480469 168.996094 96.359375 C 168.996094 96.65625 169.144531 96.949219 169.289062 97.242188 C 170.609375 100.175781 171.636719 102.527344 171.785156 105.753906 C 171.933594 108.542969 171.492188 111.625 173.105469 114.121094 C 174.574219 116.324219 177.363281 117.644531 180.152344 117.058594 C 184.703125 116.324219 187.050781 112.066406 186.609375 107.808594 Z M 218.609375 57.316406 C 217.285156 55.554688 215.378906 54.089844 213.175781 53.355469 C 210.242188 52.472656 207.160156 52.914062 204.371094 53.941406 C 202.902344 54.527344 193.949219 58.636719 196.738281 60.695312 C 197.179688 60.988281 197.765625 61.132812 198.207031 61.132812 C 201.726562 57.757812 206.570312 55.851562 211.414062 55.996094 C 213.910156 55.996094 216.257812 56.582031 218.609375 57.609375 C 218.753906 57.316406 218.609375 57.316406 218.609375 57.316406 Z M 192.773438 13.578125 C 188.078125 15.777344 182.207031 21.945312 182.941406 27.519531 C 183.085938 28.109375 183.234375 28.84375 183.820312 29.136719 C 184.410156 29.429688 185.289062 29.136719 185.875 28.84375 C 186.023438 28.84375 186.167969 28.695312 186.316406 28.695312 C 186.757812 27.960938 187.050781 26.933594 187.34375 26.054688 C 188.664062 21.796875 189.839844 17.394531 192.921875 14.164062 C 193.363281 13.722656 193.65625 13.429688 194.097656 12.988281 C 193.65625 13.285156 193.214844 13.429688 192.773438 13.578125 Z M 192.773438 13.578125 " fill-opacity="1" fill-rule="nonzero"/></g><path fill="#ffffff" d="M 180.59375 45.28125 C 179.710938 45.722656 178.832031 45.867188 177.65625 45.574219 C 176.921875 45.429688 176.1875 45.136719 175.601562 44.695312 C 174.28125 44.105469 173.105469 43.078125 172.226562 42.050781 C 171.199219 40.878906 170.464844 39.558594 170.023438 37.941406 C 169.878906 37.207031 169.730469 36.476562 169.730469 35.742188 C 169.730469 35.300781 169.730469 34.859375 169.878906 34.417969 C 170.023438 33.980469 170.316406 33.6875 170.464844 33.390625 C 170.90625 32.804688 171.785156 32.660156 172.226562 33.390625 C 172.226562 33.390625 172.519531 33.6875 172.371094 33.539062 C 172.519531 33.6875 172.664062 33.832031 172.8125 33.980469 C 172.960938 34.273438 173.105469 34.714844 173.253906 35.007812 C 173.398438 35.300781 173.398438 35.59375 173.546875 35.886719 C 173.546875 36.035156 173.691406 36.179688 173.691406 36.328125 C 173.691406 36.328125 173.691406 36.476562 173.839844 36.621094 C 173.839844 36.769531 173.988281 36.769531 173.988281 36.914062 C 173.988281 37.0625 174.132812 37.207031 174.132812 37.355469 C 174.28125 37.648438 174.425781 37.941406 174.574219 38.089844 C 174.722656 38.234375 174.867188 38.53125 175.015625 38.675781 C 175.015625 38.675781 175.160156 38.824219 175.160156 38.96875 C 175.308594 39.117188 175.308594 39.117188 175.453125 39.261719 C 175.601562 39.410156 175.894531 39.703125 176.042969 39.851562 C 176.042969 39.851562 176.335938 40.144531 176.335938 40.144531 C 176.335938 40.144531 176.1875 39.996094 176.1875 39.996094 C 176.335938 39.996094 176.335938 40.144531 176.480469 40.144531 C 176.921875 40.4375 177.507812 40.730469 177.949219 41.023438 C 178.097656 41.023438 178.242188 41.171875 178.242188 41.171875 C 178.683594 41.320312 179.125 41.464844 179.417969 41.613281 C 179.417969 41.613281 179.269531 41.613281 179.269531 41.464844 C 179.417969 41.464844 179.566406 41.613281 179.710938 41.613281 C 179.859375 41.757812 180.003906 41.757812 180.152344 41.90625 C 180.003906 41.90625 180.886719 42.492188 180.445312 42.199219 C 180.59375 42.347656 180.738281 42.492188 181.03125 42.640625 C 181.621094 43.519531 181.472656 44.988281 180.59375 45.28125 Z M 187.050781 41.613281 C 185.140625 41.613281 185.140625 44.546875 187.050781 44.546875 C 188.957031 44.546875 188.957031 41.613281 187.050781 41.613281 Z M 194.242188 76.398438 C 192.628906 75.664062 190.71875 77.132812 189.105469 77.574219 C 187.34375 78.011719 185.4375 78.160156 183.527344 78.308594 C 179.417969 78.453125 175.160156 78.160156 171.050781 79.039062 C 164.300781 80.507812 158.722656 84.765625 155.050781 90.488281 C 154.613281 91.222656 155.785156 92.25 156.375 91.515625 C 160.777344 86.234375 167.675781 82.5625 174.574219 82.125 C 178.683594 81.976562 182.648438 82.5625 186.609375 82.125 C 189.398438 81.828125 194.828125 81.242188 195.125 77.71875 C 195.269531 77.132812 194.828125 76.691406 194.242188 76.398438 Z M 201.140625 74.34375 C 201.140625 74.050781 200.996094 73.902344 200.847656 73.757812 C 200.699219 73.609375 200.554688 73.464844 200.40625 73.464844 C 200.261719 73.316406 200.113281 73.316406 199.820312 73.316406 C 199.527344 73.316406 199.378906 73.316406 199.085938 73.464844 C 198.941406 73.609375 198.792969 73.609375 198.644531 73.757812 C 198.5 73.902344 198.5 73.902344 198.5 74.050781 C 198.5 74.050781 198.5 74.195312 198.351562 74.195312 C 198.351562 74.195312 198.351562 74.195312 198.351562 74.34375 C 198.351562 74.34375 198.351562 74.492188 198.207031 74.492188 C 198.207031 74.636719 198.207031 74.785156 198.058594 74.929688 C 198.058594 75.078125 198.058594 75.226562 198.058594 75.519531 C 198.058594 75.664062 198.058594 75.8125 198.207031 75.957031 L 198.351562 76.253906 C 198.5 76.398438 198.644531 76.398438 198.792969 76.546875 C 198.941406 76.546875 198.941406 76.691406 199.085938 76.691406 C 199.234375 76.691406 199.378906 76.691406 199.671875 76.691406 C 199.820312 76.691406 199.820312 76.546875 199.96875 76.546875 C 200.113281 76.398438 200.261719 76.253906 200.40625 76.105469 C 200.554688 75.8125 200.699219 75.664062 200.699219 75.371094 C 200.699219 75.371094 200.699219 75.226562 200.699219 75.226562 C 200.699219 75.226562 200.699219 75.226562 200.699219 75.078125 C 200.699219 74.929688 200.699219 74.785156 200.699219 74.492188 C 201.289062 74.492188 201.289062 74.492188 201.140625 74.34375 Z M 199.96875 17.980469 C 199.96875 18.273438 199.96875 18.566406 199.820312 18.859375 C 199.820312 19.007812 199.671875 19.300781 199.527344 19.449219 C 199.234375 19.742188 198.941406 20.035156 198.5 20.183594 C 198.5 20.183594 198.351562 20.183594 198.351562 20.183594 C 198.351562 20.183594 198.207031 20.183594 198.207031 20.183594 C 197.765625 20.328125 197.179688 20.183594 196.882812 19.886719 C 196.589844 19.59375 196.445312 19.300781 196.445312 18.859375 C 196.445312 18.566406 196.445312 18.273438 196.445312 18.128906 C 196.445312 18.128906 196.445312 17.980469 196.445312 17.980469 C 196.445312 17.980469 196.445312 17.832031 196.445312 17.832031 C 196.445312 17.832031 196.445312 17.6875 196.445312 17.6875 C 196.445312 17.539062 196.445312 17.394531 196.296875 17.394531 C 196.296875 17.394531 196.296875 17.539062 196.445312 17.539062 C 196.445312 17.394531 196.296875 17.246094 196.296875 17.101562 C 196.296875 16.953125 196.152344 16.804688 196.152344 16.660156 C 196.152344 16.660156 196.152344 16.660156 196.152344 16.511719 C 196.152344 16.511719 196.152344 16.367188 196.152344 16.367188 C 196.003906 16.074219 196.003906 15.777344 196.152344 15.484375 C 196.296875 15.191406 196.445312 15.046875 196.738281 14.898438 C 197.324219 14.75 197.910156 14.75 198.351562 15.046875 C 198.644531 15.191406 198.792969 15.339844 198.941406 15.484375 C 199.234375 15.777344 199.378906 16.074219 199.527344 16.511719 C 199.96875 17.101562 200.113281 17.539062 199.96875 17.980469 Z M 146.097656 6.238281 C 146.097656 5.945312 145.953125 5.652344 145.953125 5.210938 C 145.953125 5.0625 145.804688 4.917969 145.660156 4.769531 C 145.511719 4.625 145.363281 4.625 145.21875 4.625 C 145.070312 4.625 144.925781 4.625 144.777344 4.769531 C 144.632812 4.917969 144.484375 5.0625 144.484375 5.210938 C 144.484375 5.503906 144.335938 5.796875 144.335938 6.238281 C 144.335938 6.386719 144.335938 6.53125 144.335938 6.679688 C 144.335938 6.824219 144.335938 6.824219 144.335938 6.972656 C 144.335938 7.117188 144.335938 7.414062 144.484375 7.558594 C 144.632812 7.707031 144.632812 7.851562 144.925781 8 C 145.070312 8.144531 145.21875 8.144531 145.363281 8.144531 C 145.511719 8.144531 145.660156 8.144531 145.804688 8 C 145.953125 8 146.097656 7.707031 146.246094 7.558594 C 146.390625 7.414062 146.390625 7.265625 146.390625 6.972656 C 146.390625 6.824219 146.390625 6.824219 146.390625 6.679688 C 146.097656 6.53125 146.097656 6.386719 146.097656 6.238281 Z M 217.433594 61.574219 C 216.992188 61.132812 216.40625 60.988281 215.820312 61.132812 C 215.671875 61.132812 215.378906 61.28125 215.230469 61.28125 C 215.230469 61.28125 215.085938 61.28125 215.085938 61.28125 C 215.085938 61.28125 215.085938 61.28125 214.9375 61.28125 C 214.9375 61.28125 214.792969 61.28125 214.792969 61.28125 C 214.644531 61.28125 214.5 61.28125 214.203125 61.28125 C 214.058594 61.28125 214.058594 61.28125 213.910156 61.28125 C 213.46875 61.132812 213.03125 61.132812 212.738281 60.988281 C 212.589844 60.988281 212.589844 60.988281 212.441406 60.839844 C 212.441406 60.839844 212.296875 60.839844 212.296875 60.839844 C 212.148438 60.695312 211.855469 60.695312 211.710938 60.546875 C 211.414062 60.253906 210.683594 60.398438 210.386719 60.695312 C 210.09375 60.988281 209.949219 61.574219 210.242188 62.015625 C 210.535156 62.453125 210.828125 62.75 211.121094 63.042969 C 211.5625 63.480469 212.003906 63.628906 212.589844 63.921875 C 213.46875 64.214844 214.351562 64.363281 215.378906 64.214844 C 215.964844 64.070312 216.699219 63.921875 217.140625 63.480469 C 217.875 62.75 217.875 62.015625 217.433594 61.574219 Z M 215.085938 61.28125 C 215.085938 61.132812 215.085938 61.132812 215.085938 61.28125 C 215.230469 61.132812 215.085938 61.132812 215.085938 61.28125 Z M 181.765625 103.257812 C 181.765625 102.964844 181.621094 102.671875 181.472656 102.527344 C 181.179688 102.085938 180.886719 101.792969 180.59375 101.5 C 180.445312 101.351562 180.296875 101.203125 180.152344 101.203125 C 180.003906 101.058594 179.859375 100.910156 179.710938 100.910156 C 179.566406 100.910156 179.566406 100.765625 179.417969 100.765625 C 178.976562 100.617188 178.535156 100.472656 178.097656 100.324219 C 177.804688 100.175781 177.363281 100.324219 177.214844 100.765625 C 177.070312 101.058594 177.070312 101.5 177.363281 101.792969 C 177.65625 102.085938 177.949219 102.230469 178.097656 102.527344 C 178.242188 102.671875 178.390625 102.820312 178.535156 102.964844 C 178.683594 103.113281 178.832031 103.257812 178.976562 103.40625 C 179.269531 103.699219 179.417969 103.992188 179.710938 104.285156 C 180.003906 104.582031 180.445312 104.875 180.886719 105.019531 C 181.324219 105.167969 181.765625 104.875 181.765625 104.433594 C 181.765625 104.285156 181.765625 104.140625 181.765625 103.992188 C 181.914062 103.554688 181.765625 103.40625 181.765625 103.257812 Z M 182.207031 106.046875 C 181.03125 106.046875 181.03125 107.808594 182.207031 107.808594 C 183.378906 107.957031 183.378906 106.046875 182.207031 106.046875 Z M 118.652344 100.472656 C 118.652344 100.472656 118.796875 100.324219 118.652344 100.472656 Z M 119.972656 97.976562 C 119.386719 97.976562 118.945312 98.414062 118.945312 99.003906 C 118.945312 99.148438 118.945312 99.148438 118.945312 99.296875 C 118.945312 99.296875 118.945312 99.296875 118.945312 99.441406 C 118.945312 99.589844 118.945312 99.882812 118.796875 100.03125 C 118.796875 100.175781 118.652344 100.472656 118.652344 100.617188 C 118.652344 100.617188 118.652344 100.765625 118.652344 100.765625 C 118.652344 100.910156 118.503906 100.910156 118.503906 101.058594 C 118.355469 101.203125 118.355469 101.351562 118.210938 101.5 C 118.210938 101.5 118.0625 101.644531 118.0625 101.644531 C 118.0625 101.644531 118.210938 101.5 118.0625 101.644531 C 118.0625 101.644531 118.0625 101.644531 118.0625 101.792969 C 117.917969 101.9375 117.769531 102.085938 117.625 102.230469 C 117.476562 102.378906 117.328125 102.671875 117.183594 102.820312 C 116.890625 103.113281 117.035156 103.699219 117.328125 103.992188 C 117.625 104.285156 118.0625 104.582031 118.503906 104.433594 C 118.652344 104.433594 118.796875 104.285156 118.945312 104.285156 C 119.089844 104.140625 119.238281 104.140625 119.386719 103.992188 C 119.53125 103.847656 119.824219 103.554688 119.972656 103.257812 C 120.265625 102.964844 120.414062 102.527344 120.707031 102.085938 C 121.144531 101.203125 121.292969 100.175781 121.292969 99.148438 C 121 98.414062 120.558594 97.976562 119.972656 97.976562 Z M 118.0625 101.5 Z M 115.421875 41.464844 C 115.273438 41.320312 115.128906 41.171875 114.980469 41.171875 C 114.542969 41.171875 114.246094 41.023438 113.808594 41.171875 C 113.511719 41.320312 113.21875 41.320312 113.074219 41.464844 C 112.925781 41.464844 112.925781 41.613281 112.78125 41.613281 C 112.78125 41.613281 112.632812 41.613281 112.632812 41.613281 L 111.898438 41.757812 C 111.3125 41.90625 111.457031 42.785156 112.046875 42.785156 C 112.339844 42.785156 112.484375 42.785156 112.78125 42.785156 C 112.78125 42.785156 112.925781 42.785156 112.925781 42.785156 C 113.074219 42.785156 113.074219 42.785156 113.21875 42.785156 C 113.511719 42.785156 113.808594 42.933594 114.101562 42.933594 C 114.542969 42.933594 114.835938 42.785156 115.128906 42.640625 C 115.273438 42.640625 115.421875 42.492188 115.421875 42.347656 C 115.570312 42.199219 115.570312 41.90625 115.570312 41.757812 C 115.570312 41.613281 115.421875 41.464844 115.421875 41.464844 Z M 115.421875 41.464844 " fill-opacity="1" fill-rule="nonzero"/><path fill="#b7ea5e" d="M 153.84375 97.140625 C 145.453125 97.140625 137.351562 93.097656 132.417969 86.230469 C 127.25 79.027344 125.929688 69.238281 129.21875 60.953125 C 130.09375 58.742188 131.265625 56.636719 132.289062 54.488281 C 133.359375 52.242188 134.386719 49.96875 135.28125 47.644531 C 136.195312 45.269531 137.003906 42.859375 137.734375 40.421875 C 138.441406 38.046875 138.992188 35.644531 139.578125 33.238281 C 140.097656 31.109375 140.855469 29.109375 142.175781 27.351562 C 143.324219 25.820312 144.785156 24.527344 146.425781 23.550781 C 149.992188 21.429688 154.367188 20.882812 158.3125 22.191406 C 162.296875 23.511719 165.621094 26.550781 167.09375 30.523438 C 167.773438 32.351562 168.148438 34.277344 168.617188 36.164062 C 169.207031 38.542969 169.882812 40.898438 170.648438 43.226562 C 171.941406 47.1875 173.4375 51.152344 175.273438 54.890625 C 176.09375 56.558594 177.054688 58.15625 177.800781 59.851562 C 178.535156 61.515625 179.09375 63.253906 179.464844 65.03125 C 180.9375 72.0625 179.488281 79.605469 175.527344 85.578125 C 170.960938 92.476562 163.261719 96.761719 155.046875 97.117188 C 154.648438 97.136719 154.246094 97.144531 153.84375 97.140625 " fill-opacity="1" fill-rule="nonzero"/><path fill="#709929" d="M 175.742188 53.53125 C 176.125 54.363281 176.523438 55.191406 176.929688 56.007812 C 177.121094 56.390625 177.3125 56.765625 177.535156 57.125 C 177.5625 57.171875 177.71875 57.496094 177.789062 57.496094 C 177.785156 57.496094 177.589844 57.035156 177.574219 57.003906 C 177.386719 56.617188 177.1875 56.234375 176.988281 55.855469 C 176.585938 55.074219 176.179688 54.292969 175.742188 53.53125 Z M 153.886719 20.496094 C 150.0625 20.496094 146.285156 21.957031 143.4375 24.527344 C 141.964844 25.847656 140.722656 27.46875 139.878906 29.269531 C 138.878906 31.398438 138.488281 33.738281 137.9375 36.011719 C 136.765625 40.84375 135.164062 45.632812 133.1875 50.191406 C 132.199219 52.464844 131.121094 54.691406 130.03125 56.914062 C 128.992188 59.042969 127.984375 61.136719 127.378906 63.441406 C 125.128906 71.96875 127.09375 81.289062 132.644531 88.125 C 138 94.726562 146.332031 98.382812 154.765625 98.109375 C 163.148438 97.835938 171.078125 93.628906 175.9375 86.726562 C 180.074219 80.851562 181.800781 73.390625 180.691406 66.277344 C 180.28125 63.640625 179.484375 61.066406 178.328125 58.664062 C 177.703125 57.359375 176.96875 56.101562 176.320312 54.804688 C 176.136719 54.4375 175.953125 54.070312 175.777344 53.703125 C 175.765625 53.683594 175.632812 53.351562 175.625 53.351562 C 175.648438 53.351562 175.742188 53.53125 175.742188 53.53125 C 173.679688 49.085938 171.964844 44.476562 170.597656 39.765625 C 169.9375 37.503906 169.414062 35.214844 168.835938 32.933594 C 168.332031 30.941406 167.683594 28.972656 166.546875 27.25 C 163.785156 23.0625 158.851562 20.5 153.886719 20.496094 Z M 153.886719 22.457031 C 158.203125 22.460938 162.515625 24.6875 164.921875 28.328125 C 166.027344 30.003906 166.589844 31.9375 167.0625 33.875 C 167.574219 35.953125 168.070312 38.035156 168.664062 40.09375 C 170.011719 44.765625 171.691406 49.34375 173.703125 53.761719 C 174.476562 55.464844 175.332031 57.105469 176.199219 58.761719 C 177.042969 60.375 177.710938 62.089844 178.183594 63.851562 C 180.050781 70.792969 178.882812 78.417969 175.070312 84.496094 C 170.699219 91.464844 163.078125 95.820312 154.90625 96.144531 C 146.511719 96.476562 138.269531 92.621094 133.289062 85.769531 C 128.117188 78.644531 126.847656 68.765625 130.402344 60.636719 C 131.367188 58.441406 132.507812 56.316406 133.53125 54.144531 C 134.589844 51.894531 135.59375 49.613281 136.460938 47.28125 C 137.34375 44.910156 138.140625 42.507812 138.851562 40.078125 C 139.546875 37.699219 140.042969 35.28125 140.671875 32.890625 C 141.09375 31.285156 141.6875 29.757812 142.628906 28.386719 C 143.453125 27.1875 144.476562 26.128906 145.636719 25.253906 C 148 23.46875 150.929688 22.457031 153.886719 22.457031 " fill-opacity="1" fill-rule="nonzero"/><g clip-path="url(#194781f71e)"><path fill="#435c1d" d="M 153.886719 22.421875 C 150.035156 22.417969 146.253906 24.132812 143.671875 27.011719 C 142.273438 28.566406 141.335938 30.386719 140.765625 32.402344 C 140.101562 34.746094 139.652344 37.144531 138.980469 39.492188 C 137.601562 44.328125 135.871094 49.035156 133.75 53.59375 C 132.933594 55.347656 132.082031 57.078125 131.234375 58.820312 C 130.5 60.316406 129.828125 61.816406 129.367188 63.425781 C 126.914062 71.964844 129.074219 81.417969 135.035156 87.96875 C 140.742188 94.246094 149.472656 97.175781 157.789062 95.902344 C 165.699219 94.695312 172.632812 89.632812 176.261719 82.460938 C 179.507812 76.042969 180.015625 68.332031 177.496094 61.582031 C 176.867188 59.90625 175.988281 58.386719 175.1875 56.800781 C 174.261719 54.976562 173.429688 53.125 172.636719 51.238281 C 170.746094 46.746094 169.183594 42.109375 167.960938 37.386719 C 167.070312 33.964844 166.589844 30.238281 164.296875 27.417969 C 161.769531 24.304688 157.886719 22.421875 153.886719 22.421875 Z M 153.84375 100.046875 C 145.558594 100.042969 137.429688 96.484375 131.914062 90.230469 C 126.113281 83.648438 123.566406 74.660156 124.90625 65.976562 C 125.257812 63.6875 125.867188 61.4375 126.773438 59.308594 C 127.257812 58.167969 127.828125 57.066406 128.371094 55.957031 C 130.570312 51.457031 132.601562 46.925781 134.167969 42.15625 C 134.941406 39.789062 135.660156 37.394531 136.222656 34.96875 C 136.75 32.679688 137.210938 30.359375 138.25 28.238281 C 139.9375 24.785156 142.835938 21.96875 146.273438 20.308594 C 150.023438 18.5 154.390625 18.078125 158.402344 19.183594 C 162.476562 20.3125 166.21875 23.007812 168.433594 26.652344 C 169.535156 28.464844 170.191406 30.484375 170.703125 32.535156 C 171.214844 34.5625 171.679688 36.597656 172.253906 38.613281 C 173.578125 43.273438 175.246094 47.839844 177.253906 52.25 C 177.953125 53.777344 178.992188 55.144531 179.554688 56.742188 C 179.824219 57.496094 180.238281 58.203125 180.550781 58.941406 C 180.917969 59.789062 181.238281 60.652344 181.519531 61.535156 C 182.621094 65 183.066406 68.671875 182.855469 72.304688 C 182.425781 79.582031 179.34375 86.640625 174.171875 91.765625 C 168.777344 97.113281 161.394531 100.050781 153.84375 100.046875 " fill-opacity="1" fill-rule="nonzero"/></g><path fill="#5b391d" d="M 170.316406 69.066406 C 170.3125 76.175781 165.667969 82.667969 158.972656 84.910156 C 152.203125 87.175781 144.570312 84.707031 140.359375 78.914062 C 136.144531 73.113281 136.148438 64.988281 140.367188 59.191406 C 144.582031 53.402344 152.222656 50.941406 158.988281 53.214844 C 165.683594 55.464844 170.320312 61.960938 170.316406 69.066406 " fill-opacity="1" fill-rule="nonzero"/><path fill="#4c2f19" d="M 157.371094 82.09375 C 150.316406 82.089844 143.875 77.414062 141.648438 70.667969 C 139.972656 65.59375 140.859375 59.875 143.992188 55.558594 C 140.855469 57.859375 138.574219 61.261719 137.644531 65.058594 C 136.761719 68.683594 137.113281 72.582031 138.652344 75.980469 C 141.632812 82.5625 148.6875 86.523438 155.808594 85.628906 C 160.3125 85.0625 164.457031 82.585938 167.132812 78.898438 C 164.308594 80.96875 160.863281 82.097656 157.371094 82.09375 " fill-opacity="1" fill-rule="nonzero"/><path fill="#845828" d="M 164.347656 72.039062 C 163.949219 72.039062 163.566406 71.859375 163.308594 71.554688 C 162.984375 71.171875 162.988281 70.742188 163 70.265625 C 163.019531 69.40625 162.96875 68.542969 162.824219 67.695312 C 162.589844 66.3125 162.101562 64.972656 161.324219 63.804688 C 160.125 62.003906 158.3125 60.71875 156.316406 59.949219 C 155.660156 59.699219 154.984375 59.5 154.300781 59.363281 C 153.703125 59.242188 153.066406 59.25 152.660156 58.703125 C 151.894531 57.675781 152.835938 56.367188 154.015625 56.535156 C 154.429688 56.59375 154.839844 56.679688 155.246094 56.78125 C 159.210938 57.753906 162.882812 60.214844 164.585938 64.058594 C 165.140625 65.304688 165.472656 66.640625 165.625 67.996094 C 165.714844 68.792969 165.742188 69.59375 165.71875 70.390625 C 165.695312 71.226562 165.296875 72.039062 164.347656 72.039062 " fill-opacity="1" fill-rule="nonzero"/><path fill="#defc8b" d="M 162.601562 39.683594 C 162.203125 39.679688 161.820312 39.503906 161.5625 39.199219 C 161.242188 38.816406 161.242188 38.394531 161.25 37.921875 C 161.261719 37.097656 161.183594 36.269531 160.984375 35.472656 C 160.65625 34.136719 159.996094 32.910156 159.078125 31.894531 C 157.773438 30.453125 156.015625 29.4375 154.175781 28.859375 C 154 28.804688 153.824219 28.753906 153.644531 28.710938 C 152.945312 28.546875 152.441406 27.917969 152.539062 27.179688 C 152.664062 26.273438 153.519531 25.863281 154.339844 26.054688 C 154.839844 26.171875 155.332031 26.328125 155.816406 26.511719 C 158.316406 27.457031 160.609375 29.125 162.109375 31.367188 C 162.933594 32.609375 163.496094 34.003906 163.769531 35.46875 C 163.925781 36.308594 163.988281 37.164062 163.972656 38.011719 C 163.957031 38.855469 163.5625 39.683594 162.601562 39.683594 " fill-opacity="1" fill-rule="nonzero"/><g fill="#3e721d" fill-opacity="1"><g transform="translate(67.19405, 73.095736)"><g><path d="M 28.15625 -3.09375 C 28.28125 -2.550781 28.226562 -2.015625 28 -1.484375 C 27.78125 -0.960938 27.425781 -0.566406 26.9375 -0.296875 C 26.625 -0.0976562 26.253906 0 25.828125 0 L 20.8125 0 C 20.125 0 19.609375 -0.207031 19.265625 -0.625 C 18.921875 -1.039062 18.613281 -1.59375 18.34375 -2.28125 L 17.234375 -5.171875 L 11.59375 -5.171875 L 10.515625 -2.28125 C 10.242188 -1.59375 9.9375 -1.046875 9.59375 -0.640625 C 9.25 -0.234375 8.734375 -0.03125 8.046875 -0.03125 L 3.03125 -0.03125 C 2.632812 -0.03125 2.3125 -0.09375 2.0625 -0.21875 C 1.519531 -0.46875 1.117188 -0.867188 0.859375 -1.421875 C 0.609375 -1.972656 0.554688 -2.546875 0.703125 -3.140625 L 7.34375 -27.53125 C 7.414062 -27.875 7.546875 -28.15625 7.734375 -28.375 C 7.921875 -28.601562 8.097656 -28.773438 8.265625 -28.890625 C 8.660156 -29.210938 9.140625 -29.375 9.703125 -29.375 L 19.375 -29.375 C 19.644531 -29.375 19.9375 -29.320312 20.25 -29.21875 C 20.570312 -29.125 20.867188 -28.941406 21.140625 -28.671875 C 21.410156 -28.378906 21.585938 -28.078125 21.671875 -27.765625 C 21.765625 -27.460938 21.835938 -27.203125 21.890625 -26.984375 Z M 16.171875 -13.6875 C 16.335938 -13.6875 16.46875 -13.757812 16.5625 -13.90625 C 16.664062 -14.0625 16.691406 -14.222656 16.640625 -14.390625 L 15.6875 -16.90625 L 14.90625 -18.828125 C 14.832031 -19.066406 14.671875 -19.1875 14.421875 -19.1875 C 14.179688 -19.1875 14.023438 -19.066406 13.953125 -18.828125 L 13.21875 -16.90625 L 12.25 -14.390625 C 12.15625 -14.222656 12.164062 -14.0625 12.28125 -13.90625 C 12.40625 -13.757812 12.554688 -13.6875 12.734375 -13.6875 Z M 16.171875 -13.6875 "/></g></g></g><g fill="#3e721d" fill-opacity="1"><g transform="translate(96.051729, 73.095736)"><g><path d="M 9.109375 -1.625 L 0.703125 -26.390625 C 0.703125 -26.390625 0.675781 -26.609375 0.625 -27.046875 C 0.570312 -27.492188 0.671875 -27.960938 0.921875 -28.453125 C 1.140625 -28.921875 1.414062 -29.222656 1.75 -29.359375 C 2.082031 -29.492188 2.421875 -29.5625 2.765625 -29.5625 L 7.96875 -29.5625 C 8.6875 -29.5625 9.203125 -29.34375 9.515625 -28.90625 C 9.835938 -28.476562 10.171875 -27.875 10.515625 -27.09375 L 13.90625 -17.75 C 13.90625 -17.75 13.9375 -17.695312 14 -17.59375 C 14.0625 -17.5 14.179688 -17.453125 14.359375 -17.453125 C 14.554688 -17.453125 14.675781 -17.5 14.71875 -17.59375 C 14.769531 -17.695312 14.796875 -17.75 14.796875 -17.75 L 18.234375 -27.09375 C 18.578125 -27.875 18.90625 -28.476562 19.21875 -28.90625 C 19.539062 -29.34375 20.046875 -29.5625 20.734375 -29.5625 L 25.71875 -29.5625 C 26.1875 -29.5625 26.59375 -29.492188 26.9375 -29.359375 C 27.28125 -29.222656 27.566406 -28.921875 27.796875 -28.453125 C 28.066406 -27.960938 28.171875 -27.492188 28.109375 -27.046875 C 28.046875 -26.609375 28.015625 -26.390625 28.015625 -26.390625 L 19.59375 -1.625 C 19.351562 -1.15625 19.015625 -0.765625 18.578125 -0.453125 C 18.148438 -0.148438 17.65625 0 17.09375 0 L 11.40625 0 C 10.957031 0 10.523438 -0.148438 10.109375 -0.453125 C 9.691406 -0.765625 9.359375 -1.15625 9.109375 -1.625 Z M 9.109375 -1.625 "/></g></g></g><path stroke-linecap="butt" transform="matrix(0.677107, 0, 0, 0.677107, 18.027804, 42.348917)" fill="none" stroke-linejoin="miter" d="M 111.79156 38.41987 C 111.976169 39.221765 111.90694 40.012122 111.578106 40.790941 C 111.249271 41.56976 110.72429 42.163969 109.991623 42.562032 C 109.524332 42.856253 108.976274 43.000479 108.358988 43.000479 L 100.945786 43.000479 C 99.924668 43.000479 99.163156 42.69472 98.655481 42.083203 C 98.147807 41.460148 97.697823 40.640946 97.29976 39.619828 L 95.661355 35.373823 L 87.31934 35.373823 L 85.732857 39.619828 C 85.334794 40.640946 84.88481 41.454379 84.377135 42.054358 C 83.869461 42.648568 83.107949 42.948557 82.086831 42.948557 L 74.673629 42.948557 C 74.090957 42.948557 73.612127 42.856253 73.248679 42.665875 C 72.452553 42.302426 71.864112 41.713985 71.483356 40.894783 C 71.096831 40.08135 71.021833 39.239072 71.241057 38.367949 L 81.048406 2.328826 C 81.158017 1.82692 81.348395 1.405781 81.619539 1.076946 C 81.896453 0.753881 82.161828 0.500044 82.421434 0.321204 C 82.998337 -0.151857 83.702159 -0.382618 84.538668 -0.382618 L 98.817014 -0.382618 C 99.215077 -0.382618 99.647754 -0.313389 100.120815 -0.169164 C 100.599644 -0.0307071 101.03809 0.240437 101.436153 0.6385 C 101.834216 1.082715 102.099592 1.5327 102.220741 1.982684 C 102.353429 2.438437 102.457271 2.824962 102.5265 3.153797 Z M 94.080642 22.774264 C 94.334479 22.774264 94.536395 22.664652 94.674851 22.451198 C 94.819077 22.231975 94.853691 21.995445 94.784463 21.747377 L 93.371051 18.032122 L 92.228783 15.199529 C 92.113403 14.83608 91.871104 14.651471 91.507655 14.651471 C 91.155744 14.651471 90.919214 14.83608 90.803833 15.199529 L 89.713487 18.032122 L 88.300075 21.747377 C 88.15008 21.995445 88.167387 22.231975 88.340458 22.451198 C 88.530836 22.664652 88.750059 22.774264 89.009665 22.774264 Z M 126.289129 40.606332 L 113.862641 4.019151 C 113.862641 4.019151 113.822258 3.696086 113.741492 3.049954 C 113.672263 2.392285 113.816489 1.700002 114.179938 0.973104 C 114.508772 0.28082 114.918374 -0.163395 115.402972 -0.359542 C 115.899108 -0.561458 116.401014 -0.6653 116.908688 -0.6653 L 124.598804 -0.6653 C 125.654536 -0.6653 126.416048 -0.342235 126.889108 0.292359 C 127.3564 0.926952 127.846767 1.82692 128.354442 2.998033 L 133.367728 16.780243 C 133.367728 16.780243 133.41388 16.861009 133.500415 17.011004 C 133.598489 17.149461 133.77156 17.224458 134.019628 17.224458 C 134.313848 17.224458 134.498457 17.149461 134.567686 17.011004 C 134.636914 16.861009 134.671528 16.780243 134.671528 16.780243 L 139.742504 2.998033 C 140.261717 1.82692 140.752084 0.926952 141.219376 0.292359 C 141.692436 -0.342235 142.436641 -0.6653 143.457759 -0.6653 L 150.81904 -0.6653 C 151.511323 -0.6653 152.105533 -0.561458 152.613208 -0.359542 C 153.120882 -0.163395 153.536252 0.28082 153.865087 0.973104 C 154.26315 1.700002 154.418914 2.392285 154.332378 3.049954 C 154.240074 3.696086 154.199691 4.019151 154.199691 4.019151 L 141.767433 40.606332 C 141.403985 41.298615 140.902079 41.869749 140.261717 42.319733 C 139.632893 42.775487 138.894457 43.000479 138.052179 43.000479 L 129.66978 43.000479 C 129.012111 43.000479 128.377518 42.775487 127.754463 42.319733 C 127.142946 41.869749 126.652578 41.298615 126.289129 40.606332 Z M 126.289129 40.606332 " stroke="#9aee2f" stroke-width="2.044185" stroke-opacity="1" stroke-miterlimit="4"/><g fill="#3e721d" fill-opacity="1"><g transform="translate(124.801047, 73.095736)"><g/></g></g><g fill="#3e721d" fill-opacity="1"><g transform="translate(137.34786, 73.095736)"><g/></g></g><g fill="#3e721d" fill-opacity="1"><g transform="translate(149.894673, 73.095736)"><g/></g></g><g fill="#3e721d" fill-opacity="1"><g transform="translate(162.441486, 73.095736)"><g/></g></g><g fill="#3e721d" fill-opacity="1"><g transform="translate(174.988299, 73.095736)"><g/></g></g><g fill="#3e721d" fill-opacity="1"><g transform="translate(187.539246, 73.095736)"><g><path d="M 15.640625 -11.703125 L 24.0625 -11.703125 C 24.1875 -11.703125 24.300781 -11.644531 24.40625 -11.53125 C 24.519531 -11.414062 24.578125 -11.300781 24.578125 -11.1875 L 24.578125 -10.734375 C 24.578125 -9.160156 24.242188 -7.695312 23.578125 -6.34375 C 22.921875 -4.988281 22.03125 -3.800781 20.90625 -2.78125 C 19.789062 -1.757812 18.519531 -0.96875 17.09375 -0.40625 C 15.664062 0.15625 14.175781 0.4375 12.625 0.4375 C 11.125 0.4375 9.648438 0.15625 8.203125 -0.40625 C 6.765625 -0.96875 5.476562 -1.757812 4.34375 -2.78125 C 3.21875 -3.800781 2.316406 -4.988281 1.640625 -6.34375 C 0.960938 -7.695312 0.625 -9.160156 0.625 -10.734375 L 0.625 -19.078125 C 0.625 -20.609375 0.960938 -22.03125 1.640625 -23.34375 C 2.316406 -24.65625 3.21875 -25.8125 4.34375 -26.8125 C 5.476562 -27.8125 6.765625 -28.59375 8.203125 -29.15625 C 9.648438 -29.71875 11.125 -30 12.625 -30 C 14.175781 -30 15.664062 -29.71875 17.09375 -29.15625 C 18.519531 -28.59375 19.789062 -27.8125 20.90625 -26.8125 C 22.03125 -25.8125 22.921875 -24.65625 23.578125 -23.34375 C 24.242188 -22.03125 24.578125 -20.609375 24.578125 -19.078125 L 24.578125 -18.421875 C 24.578125 -18.265625 24.519531 -18.128906 24.40625 -18.015625 C 24.300781 -17.910156 24.1875 -17.859375 24.0625 -17.859375 L 15.640625 -17.859375 C 15.472656 -17.859375 15.332031 -17.921875 15.21875 -18.046875 C 15.113281 -18.171875 15.0625 -18.304688 15.0625 -18.453125 L 15.0625 -18.640625 C 15.0625 -18.984375 14.960938 -19.328125 14.765625 -19.671875 C 14.566406 -20.015625 14.332031 -20.273438 14.0625 -20.453125 C 13.394531 -20.835938 12.765625 -20.960938 12.171875 -20.828125 C 11.585938 -20.691406 11.109375 -20.398438 10.734375 -19.953125 C 10.367188 -19.515625 10.1875 -19.003906 10.1875 -18.421875 L 10.1875 -11.109375 C 10.1875 -10.492188 10.421875 -9.945312 10.890625 -9.46875 C 11.359375 -8.988281 11.9375 -8.75 12.625 -8.75 C 13.257812 -8.75 13.820312 -8.988281 14.3125 -9.46875 C 14.8125 -9.945312 15.0625 -10.492188 15.0625 -11.109375 C 15.0625 -11.503906 15.253906 -11.703125 15.640625 -11.703125 Z M 15.640625 -11.703125 "/></g></g></g><g fill="#3e721d" fill-opacity="1"><g transform="translate(212.743589, 73.095736)"><g><path d="M 28.15625 -3.09375 C 28.28125 -2.550781 28.226562 -2.015625 28 -1.484375 C 27.78125 -0.960938 27.425781 -0.566406 26.9375 -0.296875 C 26.625 -0.0976562 26.253906 0 25.828125 0 L 20.8125 0 C 20.125 0 19.609375 -0.207031 19.265625 -0.625 C 18.921875 -1.039062 18.613281 -1.59375 18.34375 -2.28125 L 17.234375 -5.171875 L 11.59375 -5.171875 L 10.515625 -2.28125 C 10.242188 -1.59375 9.9375 -1.046875 9.59375 -0.640625 C 9.25 -0.234375 8.734375 -0.03125 8.046875 -0.03125 L 3.03125 -0.03125 C 2.632812 -0.03125 2.3125 -0.09375 2.0625 -0.21875 C 1.519531 -0.46875 1.117188 -0.867188 0.859375 -1.421875 C 0.609375 -1.972656 0.554688 -2.546875 0.703125 -3.140625 L 7.34375 -27.53125 C 7.414062 -27.875 7.546875 -28.15625 7.734375 -28.375 C 7.921875 -28.601562 8.097656 -28.773438 8.265625 -28.890625 C 8.660156 -29.210938 9.140625 -29.375 9.703125 -29.375 L 19.375 -29.375 C 19.644531 -29.375 19.9375 -29.320312 20.25 -29.21875 C 20.570312 -29.125 20.867188 -28.941406 21.140625 -28.671875 C 21.410156 -28.378906 21.585938 -28.078125 21.671875 -27.765625 C 21.765625 -27.460938 21.835938 -27.203125 21.890625 -26.984375 Z M 16.171875 -13.6875 C 16.335938 -13.6875 16.46875 -13.757812 16.5625 -13.90625 C 16.664062 -14.0625 16.691406 -14.222656 16.640625 -14.390625 L 15.6875 -16.90625 L 14.90625 -18.828125 C 14.832031 -19.066406 14.671875 -19.1875 14.421875 -19.1875 C 14.179688 -19.1875 14.023438 -19.066406 13.953125 -18.828125 L 13.21875 -16.90625 L 12.25 -14.390625 C 12.15625 -14.222656 12.164062 -14.0625 12.28125 -13.90625 C 12.40625 -13.757812 12.554688 -13.6875 12.734375 -13.6875 Z M 16.171875 -13.6875 "/></g></g></g><g fill="#3e721d" fill-opacity="1"><g transform="translate(241.601268, 73.095736)"><g><path d="M 13.796875 -29.484375 C 15.253906 -29.484375 16.601562 -29.210938 17.84375 -28.671875 C 19.082031 -28.128906 20.160156 -27.390625 21.078125 -26.453125 C 22.003906 -25.523438 22.726562 -24.445312 23.25 -23.21875 C 23.769531 -21.988281 24.03125 -20.671875 24.03125 -19.265625 L 24.03125 -10.375 C 24.03125 -8.96875 23.769531 -7.648438 23.25 -6.421875 C 22.726562 -5.191406 22.003906 -4.101562 21.078125 -3.15625 C 20.160156 -2.207031 19.082031 -1.460938 17.84375 -0.921875 C 16.601562 -0.378906 15.253906 -0.109375 13.796875 -0.109375 L 3.875 -0.109375 C 3.113281 -0.109375 2.476562 -0.390625 1.96875 -0.953125 C 1.46875 -1.523438 1.21875 -2.144531 1.21875 -2.8125 L 1.21875 -26.828125 C 1.21875 -27.515625 1.46875 -28.128906 1.96875 -28.671875 C 2.476562 -29.210938 3.113281 -29.484375 3.875 -29.484375 Z M 15.015625 -13.90625 L 15.015625 -15.6875 C 15.015625 -16.46875 14.757812 -17.109375 14.25 -17.609375 C 13.75 -18.117188 13.117188 -18.375 12.359375 -18.375 L 10.59375 -18.375 C 10.46875 -18.375 10.347656 -18.316406 10.234375 -18.203125 C 10.128906 -18.097656 10.078125 -17.921875 10.078125 -17.671875 L 10.078125 -11.921875 C 10.078125 -11.703125 10.128906 -11.539062 10.234375 -11.4375 C 10.347656 -11.34375 10.46875 -11.296875 10.59375 -11.296875 L 12.359375 -11.296875 C 13.117188 -11.296875 13.75 -11.539062 14.25 -12.03125 C 14.757812 -12.519531 15.015625 -13.144531 15.015625 -13.90625 Z M 15.015625 -13.90625 "/></g></g></g><g fill="#3e721d" fill-opacity="1"><g transform="translate(266.547294, 73.095736)"><g><path d="M 12.65625 -29.96875 C 14.207031 -29.96875 15.703125 -29.679688 17.140625 -29.109375 C 18.578125 -28.546875 19.863281 -27.765625 21 -26.765625 C 22.132812 -25.773438 23.03125 -24.613281 23.6875 -23.28125 C 24.351562 -21.957031 24.6875 -20.53125 24.6875 -19 L 24.6875 -10.59375 C 24.6875 -9.019531 24.351562 -7.550781 23.6875 -6.1875 C 23.03125 -4.820312 22.132812 -3.625 21 -2.59375 C 19.863281 -1.570312 18.578125 -0.78125 17.140625 -0.21875 C 15.703125 0.34375 14.207031 0.625 12.65625 0.625 C 11.15625 0.625 9.6875 0.34375 8.25 -0.21875 C 6.8125 -0.78125 5.519531 -1.570312 4.375 -2.59375 C 3.226562 -3.625 2.316406 -4.820312 1.640625 -6.1875 C 0.960938 -7.550781 0.625 -9.019531 0.625 -10.59375 L 0.625 -19 C 0.625 -20.53125 0.960938 -21.957031 1.640625 -23.28125 C 2.316406 -24.613281 3.226562 -25.773438 4.375 -26.765625 C 5.519531 -27.765625 6.8125 -28.546875 8.25 -29.109375 C 9.6875 -29.679688 11.15625 -29.96875 12.65625 -29.96875 Z M 15.125 -10.96875 L 15.125 -18.34375 C 15.125 -19.007812 14.878906 -19.582031 14.390625 -20.0625 C 13.898438 -20.539062 13.320312 -20.78125 12.65625 -20.78125 C 11.96875 -20.78125 11.390625 -20.539062 10.921875 -20.0625 C 10.453125 -19.582031 10.21875 -19.007812 10.21875 -18.34375 L 10.21875 -10.96875 C 10.21875 -10.34375 10.453125 -9.789062 10.921875 -9.3125 C 11.390625 -8.832031 11.96875 -8.59375 12.65625 -8.59375 C 13.320312 -8.59375 13.898438 -8.832031 14.390625 -9.3125 C 14.878906 -9.789062 15.125 -10.34375 15.125 -10.96875 Z M 15.125 -10.96875 "/></g></g></g><path stroke-linecap="butt" transform="matrix(0.677107, 0, 0, 0.677107, 18.027804, 42.348917)" fill="none" stroke-linejoin="miter" d="M 271.051369 25.728006 L 283.483626 25.728006 C 283.662466 25.728006 283.829767 25.808773 283.9913 25.964537 C 284.158602 26.126069 284.239368 26.29914 284.239368 26.483749 L 284.239368 27.135649 C 284.239368 29.460568 283.749001 31.623954 282.762497 33.631576 C 281.787531 35.62766 280.472193 37.381445 278.810712 38.887161 C 277.16077 40.398647 275.280067 41.56976 273.168602 42.4005 C 271.068676 43.237009 268.870676 43.652379 266.580371 43.652379 C 264.365064 43.652379 262.19014 43.237009 260.061369 42.4005 C 257.938366 41.56976 256.040356 40.398647 254.367337 38.887161 C 252.700088 37.381445 251.361673 35.62766 250.357862 33.631576 C 249.365589 31.623954 248.869453 29.460568 248.869453 27.135649 L 248.869453 14.813004 C 248.869453 12.557314 249.365589 10.463156 250.357862 8.518994 C 251.361673 6.574831 252.700088 4.867198 254.367337 3.396096 C 256.040356 1.924994 257.938366 0.771188 260.061369 -0.0653212 C 262.19014 -0.90183 264.365064 -1.3172 266.580371 -1.3172 C 268.870676 -1.3172 271.068676 -0.90183 273.168602 -0.0653212 C 275.280067 0.771188 277.16077 1.924994 278.810712 3.396096 C 280.472193 4.867198 281.787531 6.574831 282.762497 8.518994 C 283.749001 10.463156 284.239368 12.557314 284.239368 14.813004 L 284.239368 15.799508 C 284.239368 16.018731 284.158602 16.214878 283.9913 16.38218 C 283.829767 16.543713 283.662466 16.624479 283.483626 16.624479 L 271.051369 16.624479 C 270.797531 16.624479 270.584077 16.532175 270.416775 16.359104 C 270.255243 16.168726 270.174476 15.96681 270.174476 15.747587 L 270.174476 15.476442 C 270.174476 14.962999 270.03025 14.455324 269.73603 13.94765 C 269.453348 13.434206 269.112975 13.05345 268.709143 12.805382 C 267.728408 12.216941 266.793825 12.026563 265.916933 12.234248 C 265.04581 12.424626 264.336219 12.851534 263.788161 13.509203 C 263.245873 14.166873 262.974728 14.928385 262.974728 15.799508 L 262.974728 26.593361 C 262.974728 27.504867 263.32087 28.3183 264.013153 29.027891 C 264.705437 29.725943 265.559253 30.077854 266.580371 30.077854 C 267.520723 30.077854 268.357232 29.725943 269.08413 29.027891 C 269.811027 28.3183 270.174476 27.504867 270.174476 26.593361 C 270.174476 26.016458 270.468697 25.728006 271.051369 25.728006 Z M 326.751342 38.41987 C 326.93595 39.221765 326.866722 40.012122 326.537887 40.790941 C 326.209053 41.56976 325.678302 42.163969 324.951405 42.562032 C 324.484113 42.856253 323.936055 43.000479 323.313 43.000479 L 315.905567 43.000479 C 314.884449 43.000479 314.117168 42.69472 313.615263 42.083203 C 313.107588 41.460148 312.657604 40.640946 312.253772 39.619828 L 310.621137 35.373823 L 302.273352 35.373823 L 300.692639 39.619828 C 300.294576 40.640946 299.838822 41.454379 299.336917 42.054358 C 298.829242 42.648568 298.06773 42.948557 297.046612 42.948557 L 289.63341 42.948557 C 289.044969 42.948557 288.571909 42.856253 288.20846 42.665875 C 287.412334 42.302426 286.818124 41.713985 286.437368 40.894783 C 286.056612 40.08135 285.975846 39.239072 286.200838 38.367949 L 296.008187 2.328826 C 296.11203 1.82692 296.302408 1.405781 296.579321 1.076946 C 296.856234 0.753881 297.12161 0.500044 297.375447 0.321204 C 297.95235 -0.151857 298.66194 -0.382618 299.492681 -0.382618 L 313.771027 -0.382618 C 314.174859 -0.382618 314.607536 -0.313389 315.074827 -0.169164 C 315.559426 -0.0307071 315.997872 0.240437 316.395935 0.6385 C 316.793998 1.082715 317.053604 1.5327 317.180523 1.982684 C 317.31321 2.438437 317.417053 2.824962 317.486281 3.153797 Z M 309.034654 22.774264 C 309.29426 22.774264 309.490407 22.664652 309.634633 22.451198 C 309.778859 22.231975 309.813473 21.995445 309.738476 21.747377 L 308.330833 18.032122 L 307.188565 15.199529 C 307.073184 14.83608 306.830885 14.651471 306.467436 14.651471 C 306.109757 14.651471 305.878995 14.83608 305.763615 15.199529 L 304.673268 18.032122 L 303.259856 21.747377 C 303.109862 21.995445 303.1214 22.231975 303.30024 22.451198 C 303.484848 22.664652 303.709841 22.774264 303.963678 22.774264 Z M 348.165976 -0.555689 C 350.317824 -0.555689 352.30237 -0.151857 354.131152 0.655807 C 355.965703 1.451933 357.563724 2.54228 358.919446 3.926847 C 360.286706 5.299876 361.353976 6.897896 362.115488 8.72091 C 362.877 10.526616 363.257756 12.470778 363.257756 14.547629 L 363.257756 27.683707 C 363.257756 29.74902 362.877 31.693182 362.115488 33.510426 C 361.353976 35.32767 360.286706 36.942998 358.919446 38.344872 C 357.563724 39.735208 355.965703 40.837093 354.131152 41.644757 C 352.30237 42.440883 350.317824 42.838946 348.165976 42.838946 L 333.501105 42.838946 C 332.376145 42.838946 331.441562 42.423576 330.697357 41.587067 C 329.947383 40.744788 329.578166 39.839051 329.578166 38.858316 L 329.578166 3.367251 C 329.578166 2.357671 329.947383 1.451933 330.697357 0.655807 C 331.441562 -0.151857 332.376145 -0.555689 333.501105 -0.555689 Z M 349.965913 22.451198 L 349.965913 19.832059 C 349.965913 18.666715 349.590926 17.714825 348.846722 16.970621 C 348.102517 16.226416 347.167934 15.851429 346.037205 15.851429 L 343.429604 15.851429 C 343.244995 15.851429 343.066155 15.937965 342.898853 16.105266 C 342.73732 16.266799 342.656554 16.526406 342.656554 16.889854 L 342.656554 25.393403 C 342.656554 25.722237 342.73732 25.958768 342.898853 26.114531 C 343.066155 26.252988 343.244995 26.322216 343.429604 26.322216 L 346.037205 26.322216 C 347.167934 26.322216 348.102517 25.958768 348.846722 25.23187 C 349.590926 24.504972 349.965913 23.576159 349.965913 22.451198 Z M 383.322438 -1.265279 C 385.606973 -1.265279 387.816511 -0.84414 389.933745 -0.0134 C 392.062516 0.823109 393.960527 1.976915 395.627776 3.448017 C 397.306564 4.91912 398.63344 6.644059 399.608406 8.611298 C 400.59491 10.572768 401.085277 12.678463 401.085277 14.934154 L 401.085277 27.349104 C 401.085277 29.68556 400.59491 31.854715 399.608406 33.868106 C 398.63344 35.887266 397.306564 37.64682 395.627776 39.152536 C 393.960527 40.664022 392.062516 41.835135 389.933745 42.683182 C 387.816511 43.513922 385.606973 43.929292 383.322438 43.929292 C 381.101362 43.929292 378.926438 43.513922 376.797666 42.683182 C 374.680433 41.835135 372.770884 40.664022 371.07479 39.152536 C 369.390233 37.64682 368.04605 35.887266 367.042239 33.868106 C 366.049966 31.854715 365.553829 29.68556 365.553829 27.349104 L 365.553829 14.934154 C 365.553829 12.678463 366.049966 10.572768 367.042239 8.611298 C 368.04605 6.644059 369.390233 4.91912 371.07479 3.448017 C 372.770884 1.976915 374.680433 0.823109 376.797666 -0.0134 C 378.926438 -0.84414 381.101362 -1.265279 383.322438 -1.265279 Z M 386.968464 26.806815 L 386.968464 15.90335 C 386.968464 14.928385 386.605015 14.086106 385.878118 13.376516 C 385.156989 12.666925 384.303173 12.309245 383.322438 12.309245 C 382.30132 12.309245 381.441734 12.666925 380.749451 13.376516 C 380.068706 14.086106 379.728333 14.928385 379.728333 15.90335 L 379.728333 26.806815 C 379.728333 27.718321 380.068706 28.531754 380.749451 29.241345 C 381.441734 29.950936 382.30132 30.302846 383.322438 30.302846 C 384.303173 30.302846 385.156989 29.950936 385.878118 29.241345 C 386.605015 28.531754 386.968464 27.718321 386.968464 26.806815 Z M 386.968464 26.806815 " stroke="#9aee2f" stroke-width="2.044185" stroke-opacity="1" stroke-miterlimit="4"/></svg>